  0
SECTION
  2
HEADER
  9
$INSBASE
 10
0.0
 20
0.0
 30
0.0
  9
$EXTMIN
 10
0.0
 20
0.0
 30
0.0
  9
$ACADVER
  1
AC1009
  9
$EXTMAX
 10
100.0
 20
100.0
 30
0.0
  0
ENDSEC
  0
SECTION
  2
TABLES
  0
TABLE
  2
LTYPE
 70
19
  0
LTYPE
  2
DASHDOT
 70
0
  3
Dash dot __ . __ . __ . __ . __ . __ . __ . __
 72
65
 73
4
 40
1.4
 49
1.0
 49
-0.2
 49
0.0
 49
-0.2
  0
LTYPE
  2
DIVIDE2
 70
0
  3
Divide(.5x) _ . _ . _ . _ . _ . _ . _ . _
 72
65
 73
6
 40
0.8
 49
0.5
 49
-0.1
 49
0.0
 49
-0.1
 49
0.0
 49
-0.1
  0
LTYPE
  2
DIVIDEX2
 70
0
  3
Divide (2x) ____  . .  ____  . .  ____  . .  ____
 72
65
 73
6
 40
2.6
 49
2.0
 49
-0.2
 49
0.0
 49
-0.2
 49
0.0
 49
-0.2
  0
LTYPE
  2
DASHDOT2
 70
0
  3
Dash dot (.5x) _ . _ . _ . _ . _ . _ . _ . _
 72
65
 73
4
 40
0.7
 49
0.5
 49
-0.1
 49
0.0
 49
-0.1
  0
LTYPE
  2
CENTERX2
 70
0
  3
Center (2x) ________  __  ________  __  ________
 72
65
 73
4
 40
3.5
 49
2.5
 49
-0.25
 49
0.5
 49
-0.25
  0
LTYPE
  2
PHANTOM2
 70
0
  3
Phantom (.5x) ___ _ _ ___ _ _ ___ _ _ ___ _ _ ___
 72
65
 73
6
 40
1.25
 49
0.625
 49
-0.125
 49
0.125
 49
-0.125
 49
0.125
 49
-0.125
  0
LTYPE
  2
DOT
 70
0
  3
Dot .  .  .  .  .  .  .  .  .  .  .  .  .  .  .  .
 72
65
 73
2
 40
0.2
 49
0.0
 49
-0.2
  0
LTYPE
  2
DASHEDX2
 70
0
  3
Dashed (2x) ____  ____  ____  ____  ____  ____
 72
65
 73
2
 40
1.2
 49
1.0
 49
-0.2
  0
LTYPE
  2
CONTINUOUS
 70
0
  3
Solid
 72
65
 73
0
 40
0.0
  0
LTYPE
  2
DASHDOTX2
 70
0
  3
Dash dot (2x) ____  .  ____  .  ____  .  ____
 72
65
 73
4
 40
2.4
 49
2.0
 49
-0.2
 49
0.0
 49
-0.2
  0
LTYPE
  2
DASHED2
 70
0
  3
Dashed (.5x) _ _ _ _ _ _ _ _ _ _ _ _ _ _
 72
65
 73
2
 40
0.3
 49
0.25
 49
-0.05
  0
LTYPE
  2
PHANTOMX2
 70
0
  3
Phantom (2x)____________    ____    ____    ____________
 72
65
 73
6
 40
4.25
 49
2.5
 49
-0.25
 49
0.5
 49
-0.25
 49
0.5
 49
-0.25
  0
LTYPE
  2
DIVIDE
 70
0
  3
Divide __ . . __ . . __ . . __ . . __ . . __
 72
65
 73
6
 40
1.6
 49
1.0
 49
-0.2
 49
0.0
 49
-0.2
 49
0.0
 49
-0.2
  0
LTYPE
  2
DASHED
 70
0
  3
Dashed __ __ __ __ __ __ __ __ __ __ __ __ __ _
 72
65
 73
2
 40
0.6
 49
0.5
 49
-0.1
  0
LTYPE
  2
CENTER
 70
0
  3
Center ____ _ ____ _ ____ _ ____ _ ____ _ ____
 72
65
 73
4
 40
2.0
 49
1.25
 49
-0.25
 49
0.25
 49
-0.25
  0
LTYPE
  2
CENTER2
 70
0
  3
Center (.5x) ____ _ ____ _ ____ _ ____ _ ____
 72
65
 73
4
 40
1.0
 49
0.625
 49
-0.125
 49
0.125
 49
-0.125
  0
LTYPE
  2
DOTX2
 70
0
  3
Dot (2x) .    .    .    .    .    .    .    . 
 72
65
 73
2
 40
0.4
 49
0.0
 49
-0.4
  0
LTYPE
  2
DOT2
 70
0
  3
Dot (.5) . . . . . . . . . . . . . . . . . . . 
 72
65
 73
2
 40
0.1
 49
0.0
 49
-0.1
  0
LTYPE
  2
PHANTOM
 70
0
  3
Phantom ______  __  __  ______  __  __  ______
 72
65
 73
6
 40
2.5
 49
1.25
 49
-0.25
 49
0.25
 49
-0.25
 49
0.25
 49
-0.25
  0
ENDTAB
  0
TABLE
  2
LAYER
 70
5
  0
LAYER
  2
TABLEBACKGROUND
 70
0
 62
1
  6
CONTINUOUS
  0
LAYER
  2
TABLECONTENT
 70
0
 62
1
  6
CONTINUOUS
  0
LAYER
  2
DIMENSIONS
 70
0
 62
1
  6
CONTINUOUS
  0
LAYER
  2
TABLEGRID
 70
0
 62
1
  6
CONTINUOUS
  0
LAYER
  2
VIEWPORTS
 70
0
 62
7
  6
CONTINUOUS
  0
ENDTAB
  0
TABLE
  2
STYLE
 70
12
  0
STYLE
  2
ARIAL_BOLD
 70
0
 40
0.0
 41
1.0
 42
1.0
 50
0.0
 71
0
  3
arialbd.ttf
  4

  0
STYLE
  2
TIMES
 70
0
 40
0.0
 41
1.0
 42
1.0
 50
0.0
 71
0
  3
times.ttf
  4

  0
STYLE
  2
ARIAL_BOLD_ITALIC
 70
0
 40
0.0
 41
1.0
 42
1.0
 50
0.0
 71
0
  3
arialbi.ttf
  4

  0
STYLE
  2
ISOCPEUR
 70
0
 40
0.0
 41
1.0
 42
1.0
 50
0.0
 71
0
  3
isocpeur.ttf
  4

  0
STYLE
  2
STANDARD
 70
0
 40
0.0
 41
1.0
 42
1.0
 50
0.0
 71
0
  3
arial.ttf
  4

  0
STYLE
  2
TIMES_BOLD
 70
0
 40
0.0
 41
1.0
 42
1.0
 50
0.0
 71
0
  3
timesbd.ttf
  4

  0
STYLE
  2
ISOCPEUR_ITALIC
 70
0
 40
0.0
 41
1.0
 42
1.0
 50
0.0
 71
0
  3
isocpeui.ttf
  4

  0
STYLE
  2
ARIAL_BLACK
 70
0
 40
0.0
 41
1.0
 42
1.0
 50
0.0
 71
0
  3
ariblk.ttf
  4

  0
STYLE
  2
TIMES_BOLD_ITALIC
 70
0
 40
0.0
 41
1.0
 42
1.0
 50
0.0
 71
0
  3
timesbi.ttf
  4

  0
STYLE
  2
TIMES_ITALIC
 70
0
 40
0.0
 41
1.0
 42
1.0
 50
0.0
 71
0
  3
timesi.ttf
  4

  0
STYLE
  2
ARIAL_ITALIC
 70
0
 40
0.0
 41
1.0
 42
1.0
 50
0.0
 71
0
  3
ariali.ttf
  4

  0
STYLE
  2
ARIAL
 70
0
 40
0.0
 41
1.0
 42
1.0
 50
0.0
 71
0
  3
arial.ttf
  4

  0
ENDTAB
  0
TABLE
  2
VIEW
 70
0
  0
ENDTAB
  0
TABLE
  2
APPID
 70
1
  0
APPID
  2
DXFWRITE
 70
0
  0
ENDTAB
  0
TABLE
  2
VPORT
 70
0
  0
ENDTAB
  0
TABLE
  2
UCS
 70
0
  0
ENDTAB
  0
ENDSEC
  0
SECTION
  2
BLOCKS
  0
ENDSEC
  0
SECTION
  2
ENTITIES
  0
VIEWPORT
  8
VIEWPORTS
 67
1
 10
0.0
 20
0.0
 30
0.0
 40
1.0
 41
1.0
 68
1
 69
1
1001
ACAD
1000
MVIEW
1002
{
1070
16
1010
0.0
1020
0.0
1030
0.0
1010
0.0
1020
0.0
1030
0.0
1040
0.0
1040
1.0
1040
0.0
1040
0.0
1040
50.0
1040
0.0
1040
0.0
1070
0
1070
100
1070
1
1070
3
1070
0
1070
0
1070
0
1070
0
1040
0.0
1040
0.0
1040
0.0
1040
0.1
1040
0.1
1040
0.1
1040
0.1
1070
0
1002
{
1002
}
1002
}
  0
LINE
 39
0.0
 62
255
  8
LINES
 10
0.0
 20
0.0
 30
0.0
 11
600.0
 21
0.0
 31
0.0
  0
LINE
 39
0.0
 62
255
  8
LINES
 10
600.0
 20
0.0
 30
0.0
 11
600.0
 21
450.0
 31
0.0
  0
LINE
 39
0.0
 62
255
  8
LINES
 10
600.0
 20
450.0
 30
0.0
 11
0.0
 21
450.0
 31
0.0
  0
LINE
 39
0.0
 62
255
  8
LINES
 10
0.0
 20
450.0
 30
0.0
 11
0.0
 21
0.0
 31
0.0
  0
LINE
 39
0.01
 62
1
  8
LINES
 10
31.525000000000006
 20
108.28
 30
0.0
 11
188.025
 21
108.28
 31
0.0
  0
LINE
 39
0.01
 62
1
  8
LINES
 10
31.525000000000006
 20
108.28
 30
0.0
 11
31.525000000000006
 21
16.879999999999995
 31
0.0
  0
LINE
 39
0.01
 62
1
  8
LINES
 10
31.525000000000006
 20
16.879999999999995
 30
0.0
 11
257.525
 21
16.879999999999995
 31
0.0
  0
LINE
 39
0.01
 62
1
  8
LINES
 10
188.025
 20
108.28
 30
0.0
 11
257.525
 21
16.879999999999995
 31
0.0
  0
LINE
 39
0.01
 62
1
  8
LINES
 10
31.525000000000006
 20
216.56
 30
0.0
 11
188.025
 21
216.56
 31
0.0
  0
LINE
 39
0.01
 62
1
  8
LINES
 10
31.525000000000006
 20
216.56
 30
0.0
 11
31.525000000000006
 21
125.16
 31
0.0
  0
LINE
 39
0.01
 62
1
  8
LINES
 10
31.525000000000006
 20
125.16
 30
0.0
 11
257.525
 21
125.16
 31
0.0
  0
LINE
 39
0.01
 62
1
  8
LINES
 10
188.025
 20
216.56
 30
0.0
 11
257.525
 21
125.16
 31
0.0
  0
LINE
 39
0.01
 62
1
  8
LINES
 10
31.525000000000006
 20
324.84000000000003
 30
0.0
 11
188.025
 21
324.84000000000003
 31
0.0
  0
LINE
 39
0.01
 62
1
  8
LINES
 10
31.525000000000006
 20
324.84000000000003
 30
0.0
 11
31.525000000000006
 21
233.44000000000003
 31
0.0
  0
LINE
 39
0.01
 62
1
  8
LINES
 10
31.525000000000006
 20
233.44000000000003
 30
0.0
 11
257.525
 21
233.44000000000003
 31
0.0
  0
LINE
 39
0.01
 62
1
  8
LINES
 10
188.025
 20
324.84000000000003
 30
0.0
 11
257.525
 21
233.44000000000003
 31
0.0
  0
LINE
 39
0.01
 62
1
  8
LINES
 10
31.525000000000006
 20
433.12
 30
0.0
 11
188.025
 21
433.12
 31
0.0
  0
LINE
 39
0.01
 62
1
  8
LINES
 10
31.525000000000006
 20
433.12
 30
0.0
 11
31.525000000000006
 21
341.72
 31
0.0
  0
LINE
 39
0.01
 62
1
  8
LINES
 10
31.525000000000006
 20
341.72
 30
0.0
 11
257.525
 21
341.72
 31
0.0
  0
LINE
 39
0.01
 62
1
  8
LINES
 10
188.025
 20
433.12
 30
0.0
 11
257.525
 21
341.72
 31
0.0
  0
LINE
 39
0.01
 62
1
  8
LINES
 10
445.55
 20
16.879999999999995
 30
0.0
 11
289.05
 21
16.879999999999995
 31
0.0
  0
LINE
 39
0.01
 62
1
  8
LINES
 10
445.55
 20
16.879999999999995
 30
0.0
 11
445.55
 21
108.28
 31
0.0
  0
LINE
 39
0.01
 62
1
  8
LINES
 10
445.55
 20
108.28
 30
0.0
 11
219.55
 21
108.28
 31
0.0
  0
LINE
 39
0.01
 62
1
  8
LINES
 10
219.55
 20
108.28
 30
0.0
 11
289.05
 21
16.879999999999995
 31
0.0
  0
LINE
 39
0.01
 62
1
  8
LINES
 10
445.55
 20
125.16
 30
0.0
 11
289.05
 21
125.16
 31
0.0
  0
LINE
 39
0.01
 62
1
  8
LINES
 10
445.55
 20
125.16
 30
0.0
 11
445.55
 21
216.56
 31
0.0
  0
LINE
 39
0.01
 62
1
  8
LINES
 10
445.55
 20
216.56
 30
0.0
 11
219.55
 21
216.56
 31
0.0
  0
LINE
 39
0.01
 62
1
  8
LINES
 10
219.55
 20
216.56
 30
0.0
 11
289.05
 21
125.16
 31
0.0
  0
LINE
 39
0.01
 62
1
  8
LINES
 10
445.55
 20
233.44
 30
0.0
 11
289.05
 21
233.44
 31
0.0
  0
LINE
 39
0.01
 62
1
  8
LINES
 10
445.55
 20
233.44
 30
0.0
 11
445.55
 21
324.84000000000003
 31
0.0
  0
LINE
 39
0.01
 62
1
  8
LINES
 10
445.55
 20
324.84000000000003
 30
0.0
 11
219.55
 21
324.84000000000003
 31
0.0
  0
LINE
 39
0.01
 62
1
  8
LINES
 10
219.55
 20
324.84000000000003
 30
0.0
 11
289.05
 21
233.44
 31
0.0
  0
LINE
 39
0.01
 62
1
  8
LINES
 10
445.55
 20
341.72
 30
0.0
 11
289.05
 21
341.72
 31
0.0
  0
LINE
 39
0.01
 62
1
  8
LINES
 10
445.55
 20
341.72
 30
0.0
 11
445.55
 21
433.12
 31
0.0
  0
LINE
 39
0.01
 62
1
  8
LINES
 10
445.55
 20
433.12
 30
0.0
 11
219.55
 21
433.12
 31
0.0
  0
LINE
 39
0.01
 62
1
  8
LINES
 10
219.55
 20
433.12
 30
0.0
 11
289.05
 21
341.72
 31
0.0
  0
LINE
 39
0.01
 62
1
  8
LINES
 10
477.07500000000005
 20
22.5
 30
0.0
 11
477.07500000000005
 21
179.0
 31
0.0
  0
LINE
 39
0.01
 62
1
  8
LINES
 10
477.07500000000005
 20
22.5
 30
0.0
 11
568.475
 21
22.5
 31
0.0
  0
LINE
 39
0.01
 62
1
  8
LINES
 10
568.475
 20
22.5
 30
0.0
 11
568.475
 21
248.5
 31
0.0
  0
LINE
 39
0.01
 62
1
  8
LINES
 10
568.475
 20
248.5
 30
0.0
 11
477.07500000000005
 21
179.0
 31
0.0
  0
LINE
 39
0.01
 62
1
  8
LINES
 10
568.475
 20
427.5
 30
0.0
 11
568.475
 21
271.0
 31
0.0
  0
LINE
 39
0.01
 62
1
  8
LINES
 10
568.475
 20
427.5
 30
0.0
 11
477.07500000000005
 21
427.5
 31
0.0
  0
LINE
 39
0.01
 62
1
  8
LINES
 10
477.07500000000005
 20
427.5
 30
0.0
 11
477.07500000000005
 21
201.5
 31
0.0
  0
LINE
 39
0.01
 62
1
  8
LINES
 10
477.07500000000005
 20
201.5
 30
0.0
 11
568.475
 21
271.0
 31
0.0
  0
TEXT
  6
ByBlock
 62
250
  8
LINES
 10
0.0
 20
0.0
 30
0.0
 40
4.7
  1
Sydney Boys High School
 50
270.0
  7
TIMES_ITALIC
 71
2
 72
1
 11
151.525
 21
63.28
 31
0.0
  0
TEXT
  6
ByBlock
 62
250
  8
LINES
 10
0.0
 20
0.0
 30
0.0
 40
5.7
  1
Student Award Scheme
 50
270.0
  7
TIMES_ITALIC
 71
2
 72
1
 11
141.525
 21
63.28
 31
0.0
  0
TEXT
  6
ByBlock
 62
250
  8
LINES
 10
0.0
 20
0.0
 30
0.0
 40
10.5
  1
The
 50
270.0
  7
TIMES_ITALIC
 71
2
 72
1
 11
122.525
 21
63.28
 31
0.0
  0
TEXT
  6
ByBlock
 62
250
  8
LINES
 10
0.0
 20
0.0
 30
0.0
 40
10.5
  1
School
 50
270.0
  7
TIMES_ITALIC
 71
2
 72
1
 11
110.525
 21
63.28
 31
0.0
  0
TEXT
  6
ByBlock
 62
250
  8
LINES
 10
0.0
 20
0.0
 30
0.0
 40
10.5
  1
Trophy
 50
270.0
  7
TIMES_ITALIC
 71
2
 72
1
 11
98.525
 21
63.28
 31
0.0
  0
TEXT
  6
ByBlock
 62
250
  8
LINES
 10
0.0
 20
0.0
 30
0.0
 40
7.0
  1
awarded to
 50
270.0
  7
TIMES_ITALIC
 71
2
 72
1
 11
76.025
 21
63.28
 31
0.0
  0
TEXT
  6
ByBlock
 62
250
  8
LINES
 10
0.0
 20
0.0
 30
0.0
 40
4.5
  1
SHOUROV QUAZI
 50
270.0
  7
STANDARD
 71
2
 72
1
 11
66.025
 21
63.28
 31
0.0
  0
TEXT
  6
ByBlock
 62
250
  8
LINES
 10
0.0
 20
0.0
 30
0.0
 40
6.0
  1
2016
 50
270.0
  7
TIMES_ITALIC
 71
2
 72
1
 11
55.525000000000006
 21
63.28
 31
0.0
  0
ENDSEC
  0
EOF
